HIERARCHY
ROOT Hips
{
  OFFSET 74.0196 97.4445 -31.1285
  CHANNELS 6 Xposition Yposition Zposition Zrotation Xrotation Yrotation
  JOINT RightUpLeg
  {
    OFFSET -8.9458 -8.66707 0.101652
    CHANNELS 3 Zrotation Xrotation Yrotation
    JOINT RightLeg
    {
      OFFSET -2.94875e-013 -44.4227 1.3727
      CHANNELS 3 Zrotation Xrotation Yrotation
      JOINT RightFoot
      {
        OFFSET 0.253549 -42.0924 -1.46059
        CHANNELS 3 Zrotation Xrotation Yrotation
        JOINT RightToes
        {
          OFFSET 0.04 -4.41509 8.4991
          CHANNELS 3 Zrotation Xrotation Yrotation
          End Site
          {
            OFFSET -0.08 -0.137448 9.77979
          }
        }
      }
    }
  }
  JOINT Spine
  {
    OFFSET -5.68434e-014 11.8905 -6.39488e-014
    CHANNELS 3 Zrotation Xrotation Yrotation
    JOINT Spine1
    {
      OFFSET 5.68434e-014 25.6574 0.127663
      CHANNELS 3 Zrotation Xrotation Yrotation
      JOINT HEad
      {
        OFFSET 4.26326e-014 8.73416 0.011341
        CHANNELS 3 Zrotation Xrotation Yrotation
        End Site
        {
          OFFSET -0.29 12.7742 2.51395
        }
      }
      JOINT LeftShoulder1
      {
        OFFSET 8.99 -0.362252 -0.22
        CHANNELS 3 Zrotation Xrotation Yrotation
        JOINT LeftArm
        {
          OFFSET 10.2827 -0.00338 0.322123
          CHANNELS 3 Zrotation Xrotation Yrotation
          JOINT LeftForeArm
          {
            OFFSET 32.7669 0.099144 -1.42434
            CHANNELS 3 Zrotation Xrotation Yrotation
            JOINT LeftHand
            {
              OFFSET 27.5643 0.085362 1.02216
              CHANNELS 3 Zrotation Xrotation Yrotation
              End Site
              {
                OFFSET 16.7443 -0.6 1.50291
              }
            }
          }
        }
      }
      JOINT RightShoulder
      {
        OFFSET -8.99 -0.362252 -0.22
        CHANNELS 3 Zrotation Xrotation Yrotation
        JOINT RightArm
        {
          OFFSET -10.2827 -0.00338 0.322123
          CHANNELS 3 Zrotation Xrotation Yrotation
          JOINT RightForeArm
          {
            OFFSET -32.8971 0.099144 -1.42434
            CHANNELS 3 Zrotation Xrotation Yrotation
            JOINT RightHand
            {
              OFFSET -27.4921 0.085362 1.02216
              CHANNELS 3 Zrotation Xrotation Yrotation
              End Site
              {
                OFFSET -16.6312 -0.6 1.50291
              }
            }
          }
        }
      }
    }
  }
  JOINT LeftUpLeg
  {
    OFFSET 8.9458 -8.66707 0.101652
    CHANNELS 3 Zrotation Xrotation Yrotation
    JOINT LeftLeg
    {
      OFFSET 7.10543e-014 -44.4227 1.3727
      CHANNELS 3 Zrotation Xrotation Yrotation
      JOINT LeftFoot
      {
        OFFSET -0.253549 -42.0924 -1.46059
        CHANNELS 3 Zrotation Xrotation Yrotation
        JOINT LeftToes
        {
          OFFSET -0.04 -4.41509 8.4991
          CHANNELS 3 Zrotation Xrotation Yrotation
          End Site
          {
            OFFSET 0.08 -0.047448 9.77979
          }
        }
      }
    }
  }
}
MOTION
Frames:	16
Frame Time:	0.0166667
-91.8683 93.6796 15.1842 -1.10549 0.54627 119.032 -17.5666 -30.1066 -3.51913 -0.325973 32.7831 3.65991 9.88093 3.37386 -1.05194 -4.23853 -14.9725 0.35879 7.0562 8.4305 -2.41794 6.46628 16.1374 -4.68127 13.0336 -15.0153 -21.1669 -5.03302e-021 -3.88251e-019 1.21329e-020 -73.4298 -3.18343 -36.2754 -13.321 42.1494 -115.544 6.54677 9.62745 -1.04006 24.1207 -2.6555 -12.5313 63.5944 -17.3283 43.1503 -20.1729 18.4148 141.67 -4.02035 10.4459 -23.4414 18.9473 -11.2855 -3.02033 -26.2277 42.1608 15.0115 -10.4996 20.8871 2.4701 37.7917 -49.4183 24.8024 
-91.9687 93.0133 16.8178 9.37586e-005 0.0485887 119.348 -16.319 -31.6378 -2.47364 -0.311295 35.596 6.06416 12.3224 5.76035 -1.52854 -5.59036 -20.5219 0.721131 6.58899 8.55071 -2.80865 6.08771 16.3317 -5.38114 13.6875 -13.8249 -19.7927 -5.03302e-021 -3.88251e-019 1.21329e-020 -72.9233 -4.07081 -39.4537 -13.495 42.2687 -115.105 6.54677 9.62745 -1.04006 24.8274 -2.93621 -13.3123 62.8468 -17.8908 41.3925 -20.2499 18.612 141.966 -4.42037 10.5233 -23.7806 19.5022 -8.75583 -4.67107 -23.9826 40.5299 13.5837 -10.0254 22.0972 2.45093 46.2984 -54.659 30.9011 
-91.9657 92.3042 18.531 1.0725 -0.321073 120.113 -15.5055 -33.1286 -0.947386 0.127884 38.7098 8.3881 14.3774 7.60532 -1.99003 -6.71479 -24.7024 0.704929 6.09474 8.67059 -3.24821 5.58822 16.5538 -6.21949 14.3229 -12.7792 -18.5293 -5.03302e-021 -3.88251e-019 1.21329e-020 -72.3226 -5.08725 -42.8585 -13.6398 42.3319 -114.673 6.54677 9.62745 -1.04006 25.3138 -3.16149 -13.944 62.0852 -18.8774 40.0642 -20.4963 18.3214 142.735 -4.93994 10.6302 -24.297 20.1627 -6.46699 -6.16813 -20.9639 38.4429 11.6445 -9.51833 23.1505 2.40085 55.3495 -58.584 37.9697 
-91.8474 91.6424 20.3184 1.99159 -0.514097 121.54 -15.3974 -34.3652 0.795825 1.15432 41.7946 9.96439 15.6035 8.79034 -2.3084 -7.54284 -27.0908 0.315547 5.64775 8.77603 -3.70908 5.0136 16.768 -7.13645 14.8376 -12.0138 -17.6061 -5.03302e-021 -3.88251e-019 1.21329e-020 -71.7467 -5.91798 -46.2492 -13.7235 42.3125 -114.272 6.54677 9.62745 -1.04006 25.6249 -3.36913 -14.566 61.467 -20.4963 39.2843 -20.9767 17.3598 144.027 -5.3462 10.7397 -25.2525 20.852 -4.70073 -7.36333 -17.4559 36.1311 9.1246 -9.20972 24.0789 2.38752 62.7075 -60.8891 43.9687 
-91.6107 91.1204 22.1776 2.62846 -0.490826 123.77 -16.2284 -35.0856 2.45279 2.81978 44.3862 10.0561 15.7685 9.5647 -2.43355 -8.15049 -28.0767 -0.366097 5.28311 8.83789 -4.14886 4.41137 16.9188 -8.03818 15.1626 -11.6214 -17.2543 -5.03302e-021 -3.88251e-019 1.21329e-020 -71.3188 -6.21762 -49.3657 -13.7369 42.2111 -113.914 6.54677 9.62745 -1.04006 25.817 -3.60503 -15.3291 61.2947 -23.0292 39.2199 -21.5944 15.8386 145.659 -5.47465 10.8257 -26.7371 21.4626 -3.68823 -8.20987 -13.743 33.7167 5.93632 -9.35633 24.9439 2.49456 66.8952 -62.1056 47.2703 
-91.2601 90.8041 24.1039 2.86577 -0.254339 126.833 -18.0682 -35.044 3.81764 4.98781 46.0257 8.1729 14.9229 10.2694 -2.39169 -8.65126 -28.2797 -1.24634 5.00738 8.81511 -4.51995 3.81963 16.9336 -8.81841 15.2661 -11.6078 -17.6655 -5.03302e-021 -3.88251e-019 1.21329e-020 -71.118 -5.73213 -51.9407 -13.697 42.0603 -113.614 6.54677 9.62745 -1.04006 25.9363 -3.9027 -16.3362 62.0452 -26.7573 40.1466 -22.0983 14.3952 147.199 -5.52674 10.9088 -28.4382 21.8654 -3.55953 -8.74444 -10.0705 31.221 2.09185 -10.1328 25.7628 2.78486 67.7633 -62.814 47.4867 
-90.8062 90.7127 26.0812 2.62821 0.122216 130.607 -20.7196 -34.1007 4.86972 7.31323 46.4203 4.35229 13.313 11.0267 -2.22005 -9.03477 -27.8748 -2.23235 4.81828 8.66547 -4.776 3.26052 16.7357 -9.37608 15.1523 -11.8755 -18.943 -5.03302e-021 -3.88251e-019 1.21329e-020 -71.1562 -4.41026 -53.727 -13.6321 41.9093 -113.401 6.54677 9.62745 -1.04006 25.9939 -4.26178 -17.583 64.3579 -31.7629 42.5346 -22.2658 14.1179 148.052 -6.22311 11.1131 -29.6141 21.9544 -4.29653 -9.03275 -6.66149 28.6015 -2.18088 -11.5219 26.4626 3.25964 65.676 -63.1876 44.8953 
-90.2644 90.8167 28.0792 1.92006 0.505717 134.799 -23.7364 -32.3096 5.74137 9.34358 45.5487 -0.788703 11.2788 11.616 -1.94022 -9.1207 -26.4604 -3.23219 4.71022 8.36061 -4.87543 2.74081 16.2682 -9.63012 14.8653 -12.2523 -21.0513 -5.03302e-021 -3.88251e-019 1.21329e-020 -71.3903 -2.45488 -54.5544 -13.5617 41.7996 -113.324 6.54677 9.62745 -1.04006 25.9449 -4.62856 -18.9095 68.797 -37.4909 47.0035 -22.1602 15.7497 147.511 -8.49971 11.6011 -29.4052 21.7048 -5.71915 -9.1101 -3.75839 25.8285 -6.39017 -13.2494 26.9107 3.8284 61.0608 -62.9945 40.0423 
-89.6567 91.0566 30.0631 0.844176 0.761381 138.973 -26.5862 -29.9495 6.5685 10.7069 43.6544 -6.27653 9.20374 11.6418 -1.59216 -8.71268 -23.5687 -4.18956 4.66078 7.90203 -4.78812 2.25708 15.5242 -9.53456 14.4974 -12.5614 -23.786 -5.03302e-021 -3.88251e-019 1.21329e-020 -71.7472 -0.279747 -54.4047 -13.4843 41.7465 -113.448 6.54677 9.62745 -1.04006 25.6856 -4.89417 -20.0063 75.1409 -42.5189 53.763 -22.2451 18.6497 144.852 -12.9195 12.3396 -27.2892 21.2038 -7.53732 -8.9532 -1.62533 23.0054 -9.84825 -14.8136 26.9839 4.31486 54.6389 -61.8033 33.8859 
-89.0142 91.3734 32.0137 -0.424502 0.825575 142.642 -28.8633 -27.4515 7.33788 11.2491 41.1171 -11.1333 7.41836 10.8826 -1.24753 -7.83317 -19.364 -5.1247 4.6181 7.3324 -4.50901 1.80405 14.5667 -9.08847 14.1745 -12.7029 -26.8001 -5.03302e-021 -3.88251e-019 1.21329e-020 -72.1505 1.62594 -53.4645 -13.3832 41.7419 -113.821 6.54677 9.62745 -1.04006 25.0866 -4.93171 -20.5166 81.6523 -45.4964 61.7108 -23.4346 20.9641 139.81 -19.323 13.011 -23.5267 20.6166 -9.4582 -8.50764 -0.488457 20.4683 -11.8498 -15.6374 26.5957 4.51549 47.5029 -59.266 27.7365 
-88.3742 91.7328 33.9388 -1.69999 0.73713 145.39 -30.4043 -25.2438 7.85899 11.0477 38.284 -14.6273 6.02801 9.50776 -0.960031 -6.78043 -14.8096 -6.09864 4.51158 6.73235 -4.06878 1.38344 13.5238 -8.33305 14.0071 -12.693 -29.6922 -5.03302e-021 -3.88251e-019 1.21329e-020 -72.5574 2.85905 -52.0989 -13.2526 41.7845 -114.452 6.54677 9.62745 -1.04006 24.0573 -4.66784 -20.2052 85.8872 -46.4324 68.8068 -27.3243 21.1287 133.159 -26.8492 13.4044 -19.6512 20.1136 -11.2782 -7.75552 -0.474485 18.7661 -11.8781 -15.2874 25.6413 4.28526 40.602 -55.3046 22.6349 
-87.7733 92.125 35.8631 -2.83243 0.608849 146.977 -31.2524 -23.6131 7.86193 10.3361 35.3824 -16.3329 4.8639 7.98559 -0.731799 -5.93875 -11.0996 -7.11209 4.2822 6.19958 -3.52882 1.00896 12.5571 -7.34227 14.0325 -12.6309 -32.1039 -5.03302e-021 -3.88251e-019 1.21329e-020 -73.0047 3.19345 -50.7352 -13.1267 41.9216 -115.31 6.54677 9.62745 -1.04006 22.6134 -4.13635 -19.0793 86.4836 -46.406 73.5725 -35.9154 19.0568 126.555 -33.9268 14.1414 -18.7878 19.8159 -12.8867 -6.7679 -1.61317 18.4789 -9.74159 -13.6639 23.9505 3.6134 34.3586 -50.1295 18.9164 
-87.2395 92.5418 37.7999 -3.71317 0.567301 147.363 -31.5345 -22.6537 7.12772 9.38714 32.5633 -16.1174 3.68023 6.8087 -0.54072 -5.54531 -8.95381 -8.0546 3.91279 5.81885 -2.96386 0.703609 11.819 -6.22093 14.2005 -12.6174 -33.7708 -5.03302e-021 -3.88251e-019 1.21329e-020 -73.6251 2.5735 -49.7267 -13.0823 42.2684 -116.331 6.54677 9.62745 -1.04006 20.9103 -3.46582 -17.3844 83.4975 -46.3492 75.4326 -50.2413 15.7472 121.8 -37.0951 16.6595 -25.2195 19.7853 -14.1804 -5.69997 -3.89602 19.9144 -5.60019 -11.0753 21.3926 2.66015 28.9084 -44.2529 16.4318 
-86.792 92.9512 39.7311 -4.2557 0.693765 146.692 -31.3501 -22.3086 5.5984 8.41627 30.0127 -14.1711 2.42532 6.23699 -0.374347 -5.58227 -8.36436 -8.73852 3.45108 5.63684 -2.44855 0.492728 11.4122 -5.11193 14.4111 -12.6803 -34.5302 -5.03302e-021 -3.88251e-019 1.21329e-020 -74.5969 1.07469 -49.2879 -13.211 42.9775 -117.427 6.54677 9.62745 -1.04006 19.222 -2.81307 -15.5002 72.832 -44.6584 71.2018 -68.2125 10.4387 115.942 -30.4105 19.7325 -41.3176 20.024 -15.0005 -4.73679 -7.31578 22.8936 0.104905 -8.11142 18.1104 1.69396 24.4659 -38.5322 14.9432 
-86.4446 93.2921 41.6098 -4.39034 0.985068 145.245 -30.741 -22.4656 3.46582 7.55886 28.0145 -11.0433 1.30529 6.17793 -0.238546 -5.81613 -8.77784 -8.97624 3.0161 5.65318 -2.05609 0.396756 11.3639 -4.19593 14.5757 -12.7449 -34.3076 -5.03302e-021 -3.88251e-019 1.21329e-020 -76.0378 -1.09853 -49.5232 -13.5813 44.1604 -118.457 6.54677 9.62745 -1.04006 17.8758 -2.29797 -13.8076 63.0466 -42.7542 66.137 -85.2209 6.49429 113.253 -16.6362 17.9136 -58.8412 20.4568 -15.1931 -4.01986 -11.799 26.8383 6.75382 -5.37227 14.6272 0.937147 21.3614 -33.9897 14.3016 
-86.2021 93.5001 43.3928 -4.08819 1.35045 143.385 -29.735 -23.0287 1.17381 6.90579 26.863 -7.56432 0.570048 6.29309 -0.149789 -5.9537 -9.45795 -8.6862 2.75723 5.83008 -1.86216 0.423609 11.6194 -3.667 14.6573 -12.6536 -33.1028 -5.03302e-021 -3.88251e-019 1.21329e-020 -77.878 -3.57305 -50.5001 -14.2058 45.77 -119.149 6.54677 9.62745 -1.04006 17.1634 -1.97744 -12.5796 58.9043 -42.1496 63.109 -93.812 1.65267 115.85 -8.20264 14.1035 -64.043 20.9232 -14.7146 -3.59224 -17.0357 31.0601 13.6118 -3.28121 11.6898 0.466004 19.856 -31.3954 14.4566 
